# xmcd
#
# Track frame offsets:
#	150
#	18877
#	36152
#	46562
#	60578
#	81643
#	97789
#	117055
#	134768
#	155747
#	178065
#	196292
#	214976
#	227413
#	240908
#	252742
#	266474
#	284215
#
# Disc length: 4060 seconds
#
# Revision: 1
# Processed by: cddbd v1.5.2PL0 Copyright (c) Steve Scherf et al.
# Submitted via: audiograbber 1.83.01
#
DISCID=fe0fda12
DTITLE=Ohrwürmer - Love Rhapsody CD1
DYEAR=2009
DGENRE=Oldies
TTITLE0=Lovin Him Was Easier - TINA TURNER
TTITLE1=Season In The Sun - THE FORTUNES
TTITLE2=Could It Be That I'm In Love With You - BEE GEES
TTITLE3=That's Amore - DEAN MARTIN
TTITLE4=Ti Amo - CLAUDIA BARRY
TTITLE5=Something's Is Gotten Hold On My Heart - GENE PITNEY
TTITLE6=Stop! In The Name Of Love - THE SUPREMES
TTITLE7=Rainy Night In Georgia - BROOK BENTON
TTITLE8=My Heart Will Go On - GRUPO EL GARZON
TTITLE9=Me And Mrs. Jones - HAROLD MELVIN and THE BLUE NOTES
TTITLE10=All By Myself - SHIRLEY BASSEY
TTITLE11=And I Love You So - HOWARD KEEL
TTITLE12=What's Gonna Happen On Our Love - BILLY OCEAN
TTITLE13=Raindrops Keep Fallin' On My Head - B.J. THOMAS
TTITLE14=It's Been So Long - GEORGE McCRAE
TTITLE15=Tell I Like It - AARON NEVILLE
TTITLE16=Summer Wine - J. WENDLOW and P. DEJAN
TTITLE17=Amigos Para Simpre - RONDO SINGERS
EXTD=
EXTT0=
EXTT1=
EXTT2=
EXTT3=
EXTT4=
EXTT5=
EXTT6=
EXTT7=
EXTT8=
EXTT9=
EXTT10=
EXTT11=
EXTT12=
EXTT13=
EXTT14=
EXTT15=
EXTT16=
EXTT17=
PLAYORDER=
